<?xml version="1.0" standalone="no"?>
<!DOCTYPE svg PUBLIC "-//W3C//DTD SVG 20010904//EN"
 "http://www.w3.org/TR/2001/REC-SVG-20010904/DTD/svg10.dtd">
<svg version="1.0" xmlns="http://www.w3.org/2000/svg"
 width="256.000000pt" height="256.000000pt" viewBox="0 0 256.000000 256.000000"
 preserveAspectRatio="xMidYMid meet">

<g transform="translate(0.000000,256.000000) scale(0.100000,-0.100000)"
fill="#000000" stroke="none">
<path d="M455 2550 c-55 -11 -136 -43 -191 -75 -119 -70 -230 -233 -253 -372
-8 -48 -11 -299 -9 -863 l3 -795 26 -66 c38 -98 74 -154 142 -220 75 -74 187
-132 284 -148 48 -8 299 -11 863 -9 l795 3 66 26 c98 38 154 74 220 142 74 75
132 187 148 284 8 48 11 299 9 863 l-3 795 -26 66 c-14 37 -38 88 -53 114 -41
69 -137 158 -217 200 -124 65 -117 65 -984 64 -429 -1 -798 -5 -820 -9z m1091
-301 c67 -32 101 -99 89 -176 -5 -35 -16 -55 -51 -89 l-44 -44 -2 -483 -3
-482 -62 -3 -63 -3 0 126 0 125 -130 0 -130 0 0 -302 0 -303 29 -20 c74 -49
94 -160 42 -232 -59 -82 -167 -94 -241 -27 -77 70 -79 166 -4 240 l44 45 0
484 0 485 65 0 65 0 0 -125 0 -125 130 0 130 0 0 303 0 303 -31 23 c-47 35
-69 79 -69 137 0 65 29 111 90 142 55 27 92 28 146 1z m-176 -494 l0 -65 -204
0 c-195 0 -204 -1 -237 -23 -58 -39 -59 -42 -59 -387 0 -297 1 -317 20 -348
11 -18 36 -40 55 -49 35 -17 35 -17 35 -81 l0 -64 -32 7 c-74 16 -143 70 -181
140 -21 38 -22 53 -25 384 l-3 345 30 61 c33 66 89 115 152 133 18 6 127 11
242 11 l207 1 0 -65z m307 35 c68 -34 115 -91 133 -161 7 -29 10 -156 8 -374
-3 -316 -4 -332 -25 -370 -25 -47 -74 -95 -123 -121 -31 -17 -64 -19 -257 -22
l-223 -3 0 65 0 66 200 0 c223 0 245 5 280 63 19 30 20 52 20 348 0 312 0 316
-23 350 -12 19 -37 40 -55 48 -31 14 -32 16 -32 78 0 76 7 78 97 33z"/>
<path d="M1430 2150 c-41 -41 -14 -110 43 -110 32 0 67 32 67 60 0 12 -11 32
-25 45 -29 30 -58 32 -85 5z"/>
<path d="M1040 500 c-27 -27 -25 -56 6 -86 42 -43 104 -15 104 46 0 55 -70 80
-110 40z"/>
</g>
</svg>
